<svg xmlns="http://www.w3.org/2000/svg" width="365" height="42" fill="none" viewBox="0 0 365 42">
  <path fill="#fff" d="M43.707 1.119v40.434h-6.606V15.435c0-1.043.056-2.171.167-3.383L25.087 35.009c-.576 1.1-1.459 1.65-2.648 1.65h-1.06c-1.189 0-2.071-.55-2.647-1.65L6.412 11.968c.055.615.101 1.221.139 1.818.037.596.055 1.146.055 1.65v26.117H0V1.119h5.659c.334 0 .622.009.864.027.241.02.455.066.64.14.205.075.382.196.53.364.168.168.326.391.474.67l12.07 22.455c.316.597.604 1.212.864 1.846.279.633.548 1.286.808 1.957.26-.69.53-1.352.809-1.985.278-.653.576-1.277.892-1.874L35.512 2.321c.149-.28.307-.503.474-.671.167-.168.344-.29.53-.364.204-.074.427-.12.669-.14.241-.018.53-.027.864-.027h5.658zM66.013 29.305c-1.988.093-3.66.27-5.017.531-1.357.243-2.444.56-3.261.951-.818.391-1.403.848-1.757 1.37a2.983 2.983 0 00-.53 1.706c0 1.212.354 2.078 1.06 2.6.725.522 1.663.783 2.815.783 1.413 0 2.63-.251 3.652-.755 1.04-.522 2.053-1.305 3.038-2.349v-4.837zM50.236 16.86c3.29-3.02 7.248-4.53 11.875-4.53 1.672 0 3.168.28 4.488.84 1.32.54 2.434 1.304 3.345 2.292.91.97 1.598 2.135 2.062 3.496.484 1.36.725 2.852.725 4.474v18.12H69.61c-.65 0-1.152-.094-1.505-.28-.353-.205-.632-.606-.836-1.202L66.654 38c-.724.653-1.43 1.23-2.118 1.734a13.02 13.02 0 01-2.146 1.23c-.744.336-1.543.588-2.398.755-.836.187-1.765.28-2.787.28-1.208 0-2.323-.158-3.345-.475-1.022-.336-1.905-.83-2.648-1.482-.743-.653-1.32-1.464-1.728-2.433-.41-.97-.614-2.097-.614-3.384 0-.727.121-1.444.363-2.153a6.426 6.426 0 011.17-2.069c.558-.652 1.273-1.268 2.147-1.846.873-.577 1.942-1.08 3.206-1.51 1.282-.428 2.768-.773 4.46-1.034 1.69-.28 3.623-.448 5.797-.504v-1.677c0-1.92-.409-3.337-1.226-4.25-.818-.933-1.998-1.399-3.54-1.399-1.115 0-2.044.13-2.788.392-.724.26-1.366.559-1.923.895l-1.533.866a2.924 2.924 0 01-1.505.392c-.483 0-.892-.121-1.227-.364a3.335 3.335 0 01-.808-.894l-1.227-2.21zM85.71 17.84c.892-1.715 1.951-3.057 3.178-4.026 1.226-.988 2.676-1.482 4.348-1.482 1.32 0 2.379.288 3.178.866l-.446 5.174c-.093.335-.232.577-.418.727-.167.13-.4.195-.697.195-.279 0-.697-.046-1.254-.14a9.312 9.312 0 00-1.59-.14c-.761 0-1.44.113-2.034.336a5.15 5.15 0 00-1.617.979c-.464.41-.883.913-1.254 1.51A16.052 16.052 0 0086.1 23.88v17.673h-6.885v-28.69h4.042c.706 0 1.199.13 1.477.391.28.243.465.69.558 1.343l.418 3.243zM106.897 0v23.796h1.283c.464 0 .827-.056 1.087-.168.278-.13.557-.382.836-.755l7.108-8.808c.297-.391.622-.69.976-.895.371-.205.845-.307 1.421-.307h6.3l-8.892 10.654c-.632.838-1.32 1.482-2.063 1.93.39.279.734.605 1.031.978.316.373.614.773.892 1.202l9.533 13.926h-6.216c-.538 0-1.003-.084-1.393-.252-.39-.187-.716-.513-.976-.979l-7.303-10.877c-.26-.429-.53-.709-.808-.84-.279-.13-.697-.195-1.255-.195h-1.561v13.143h-6.885V0h6.885zM146.491 20.19c-.78-.952-1.635-1.623-2.564-2.014a7.404 7.404 0 00-2.955-.587c-1.04 0-1.979.195-2.815.587-.836.391-1.552.988-2.147 1.79-.594.782-1.049 1.789-1.365 3.02-.316 1.211-.474 2.646-.474 4.306 0 1.677.13 3.103.39 4.278.279 1.156.669 2.106 1.171 2.852.501.727 1.115 1.258 1.839 1.594.725.317 1.534.475 2.426.475 1.43 0 2.648-.298 3.651-.895 1.004-.596 1.951-1.444 2.843-2.544V20.189zM153.376 0v41.553h-4.209c-.91 0-1.486-.42-1.728-1.259l-.585-2.768a14.37 14.37 0 01-3.986 3.216c-1.487.82-3.225 1.23-5.213 1.23-1.561 0-2.992-.326-4.293-.979-1.3-.652-2.425-1.593-3.372-2.824-.93-1.249-1.654-2.787-2.175-4.614-.501-1.827-.752-3.915-.752-6.263 0-2.126.288-4.102.864-5.929.576-1.826 1.403-3.41 2.481-4.753a11.432 11.432 0 013.874-3.132c1.505-.764 3.197-1.146 5.073-1.146 1.599 0 2.964.251 4.098.755a10.49 10.49 0 013.038 2.04V0h6.885zM172.826 12.415c2.119 0 4.042.345 5.77 1.035 1.747.69 3.234 1.668 4.46 2.936 1.245 1.268 2.202 2.815 2.871 4.642.669 1.827 1.004 3.868 1.004 6.124 0 2.274-.335 4.325-1.004 6.152-.669 1.826-1.626 3.383-2.871 4.67-1.226 1.286-2.713 2.274-4.46 2.963-1.728.69-3.651 1.035-5.77 1.035-2.137 0-4.079-.345-5.826-1.035-1.746-.69-3.242-1.677-4.487-2.964-1.227-1.286-2.184-2.843-2.871-4.67-.669-1.826-1.004-3.877-1.004-6.151 0-2.256.335-4.297 1.004-6.124.687-1.827 1.644-3.374 2.871-4.642 1.245-1.268 2.741-2.246 4.487-2.936 1.747-.69 3.689-1.035 5.826-1.035zm0 24.244c2.379 0 4.135-.801 5.268-2.405 1.153-1.603 1.729-3.952 1.729-7.046 0-3.095-.576-5.453-1.729-7.075-1.133-1.622-2.889-2.433-5.268-2.433-2.416 0-4.209.82-5.38 2.461-1.152 1.622-1.728 3.97-1.728 7.047 0 3.076.576 5.425 1.728 7.046 1.171 1.604 2.964 2.405 5.38 2.405zM232.529 12.863l-9.087 28.69h-5.519c-.632 0-1.068-.41-1.31-1.23l-5.129-16.583c-.167-.559-.325-1.109-.474-1.65-.13-.559-.241-1.118-.334-1.677a33 33 0 01-.39 1.706c-.131.559-.279 1.118-.446 1.677l-5.213 16.526c-.223.82-.715 1.23-1.477 1.23h-5.296l-9.06-28.69h5.492c.501 0 .929.122 1.282.364.353.243.585.55.697.923l4.097 15.324c.205.839.381 1.659.53 2.46.167.802.306 1.604.418 2.405.204-.801.418-1.603.641-2.405.242-.801.493-1.621.753-2.46l4.738-15.38a1.79 1.79 0 01.641-.923c.335-.242.734-.363 1.199-.363h3.038c.484 0 .892.121 1.227.363.353.243.585.55.697.923l4.599 15.38c.242.839.465 1.668.669 2.488.223.802.437 1.604.641 2.405a46.225 46.225 0 011.031-4.893l4.21-15.324c.13-.373.362-.68.696-.923.335-.242.734-.363 1.199-.363h5.24zM242.884 16.386c.576-.578 1.18-1.109 1.812-1.594.65-.503 1.328-.922 2.035-1.258a10.61 10.61 0 012.313-.811c.818-.205 1.71-.308 2.676-.308 1.561 0 2.946.27 4.153.811 1.208.522 2.212 1.268 3.011 2.237.817.951 1.431 2.098 1.84 3.44.427 1.323.641 2.787.641 4.39v18.26h-6.885v-18.26c0-1.752-.4-3.104-1.199-4.055-.799-.969-2.016-1.454-3.651-1.454-1.19 0-2.305.27-3.345.811-1.041.54-2.026 1.277-2.955 2.21v20.748h-6.885v-28.69h4.209c.892 0 1.477.42 1.756 1.258l.474 2.265z"/>
  <g>
    <path fill="#2FA4E6" d="M272.584 2.22V8.42h7.54v27.39h-7.54v6.17h22.92v-6.17h-7.73V8.418h7.73V2.22h-22.92zM304.215 41.98h10.644c1.76 0 3.411-.219 4.954-.656a15.908 15.908 0 004.274-1.884 14.454 14.454 0 003.048-2.567 19.455 19.455 0 002.423-3.386c.726-1.365 1.288-2.867 1.688-4.506.399-1.638.599-3.377.599-5.215v-3.277c0-1.912-.218-3.714-.654-5.407-.417-1.693-1.016-3.24-1.796-4.642a17.556 17.556 0 00-2.369-3.168 12.951 12.951 0 00-3.048-2.485c-1.307-.82-2.759-1.447-4.356-1.884-1.597-.455-3.312-.683-5.145-.683h-10.262v39.76zm7.704-33.534h2.558c.926 0 1.779.11 2.559.328.799.2 1.525.492 2.178.874a8.199 8.199 0 012.232 1.966c.653.801 1.18 1.711 1.579 2.73.327.856.572 1.803.735 2.84.181 1.02.272 2.103.272 3.25v3.332c0 1.22-.091 2.357-.272 3.413a14.056 14.056 0 01-.735 2.84c-.399.983-.88 1.848-1.443 2.594a7.872 7.872 0 01-1.851 1.803 7.827 7.827 0 01-2.232 1.037 9.453 9.453 0 01-2.64.355h-2.94V8.446zM362.251 24.558v-6.063h-16.279V8.474h18.946V2.22h-26.622v39.76H365v-6.2h-19.028V24.559h16.279z"/>
  </g>
</svg>
